# xmcd
#
# Track frame offsets:
#	150
#	18429
#	39810
#	53322
#	82034
#	104985
#	129073
#	145524
#	172938
#	188181
#	208343
#	223881
#
# Disc length: 3489 seconds
#
# Revision: 1
# Processed by: cddbd v1.5.1PL2 Copyright (c) Steve Scherf et al.
# Submitted via: audiograbber 1.83.01
#
DISCID=a10d9f0c
DTITLE=Family - Old Songs New Songs
DYEAR=1969
DGENRE=Blues
TTITLE0=Blind
TTITLE1=Burning Bridges
TTITLE2=Children
TTITLE3=Take Your Partners
TTITLE4=It's Only A Movie
TTITLE5=Buffet Tea For Two
TTITLE6=Sweet Desire
TTITLE7=Rockin' Pneumona And Boogie Woogie Flu
TTITLE8=Suspicion
TTITLE9=Checkout
TTITLE10=In My Own Time
TTITLE11=The Weavers Answer
EXTD=
EXTT0=
EXTT1=
EXTT2=
EXTT3=
EXTT4=
EXTT5=
EXTT6=
EXTT7=
EXTT8=
EXTT9=
EXTT10=
EXTT11=
PLAYORDER=
